# xmcd CD database file
#
# Track frame offsets:
#	150
#	12037
#	26966
#	37645
#	50104
#	62277
#	76192
#	96711
#	110782
#	124489
#	134894
#	147405
#	158666
#	172867
#	184988
#
# Disc length: 2616 seconds
#
# Revision: 0
# Processed by: cddbd v1.5.2PL0 Copyright (c) Steve Scherf et al.
# Submitted via: CDex 1.51
#
DISCID=d40a360f
DTITLE=Ray Charles - Juke Box Hits cd2
DYEAR=2006
DGENRE=Blues
TTITLE0=Hit the Road Jack
TTITLE1=Let's go get Stoned
TTITLE2=They're Crazy About Me
TTITLE3=I'm Glad for your Sake
TTITLE4=Honey Honey
TTITLE5=Late in the Evening Blues
TTITLE6=Ode to Billie Joe
TTITLE7=Walkin' and Talkin'
TTITLE8=This Love of Mine
TTITLE9=Hey Now
TTITLE10=You Always miss the Water (when the well runs dry)
TTITLE11=She's on the Ball
TTITLE12=Some Day (blues is my middle name)
TTITLE13=I've Had my Fun
TTITLE14=Margie
EXTD=YEAR: 2006
EXTT0=
EXTT1=
EXTT2=
EXTT3=
EXTT4=
EXTT5=
EXTT6=
EXTT7=
EXTT8=
EXTT9=
EXTT10=
EXTT11=
EXTT12=
EXTT13=
EXTT14=
PLAYORDER=
